<svg xmlns="http://www.w3.org/2000/svg" width="250" height="250" viewBox="0 0 250 250">
<!-- SVG created with Arrow, by QuiverAI (https://quiver.ai) -->
  <path d="m7.59 64.65 48.92-0.01 1.36 16.25-2.95 0.5c-2.13-8.6-5.54-12.97-13.36-12.97h-4.07l0.01 41.19c0 6 1.57 7.82 8.17 7.75v2h-28.23v-2c5.68 0 6.91-1.75 6.91-7.75l-0.01-41.19h-3.79c-7.83 0-10.61 3.95-12.94 12.48l-2.88-0.32 2.86-15.93z" fill="#000"/>
  <path d="m60.03 64.63h25.61v2.4c-5.23 0.19-6.87 1.76-6.87 5.96l-0.01 36.36c0 5.81 1.43 7.75 6.88 7.75v2.24h-25.62v-2.24c5.09 0 5.79-2.65 5.79-7.2v-36.29c0-4.14-1.36-6.45-5.79-6.58l0.01-2.4z" fill="#000"/>
  <path d="m91.15 64.62h41.13l0.06 3.19-28.41 47.59h11.52c9.5 0 13.5-4.02 16.29-14.62l2.33 0.13-1.92 18.41-43.83 0.01v-3.5l28.36-46.98h-11.29c-7.76 0-10.35 2.9-12.27 11.11h-2.79l0.82-15.34z" fill="#000"/>
  <path d="m136.4 64.62 44.02-0.01 1.92 16.5-2.91 0.38c-2.13-8.79-6.49-13.08-13.65-13.08h-9.43v20.35h3.29c6.01 0 8.34-3.85 9.1-9.85h1.5l-0.44 25.01h-2.07c-1.02-8.21-3.09-11.37-9.56-11.37h-1.82v16.5c0 5.06 0.95 6.51 7.55 6.51 9.04 0 14.85-4.43 18.14-14.27l2.46 0.44-1.75 17.58-46.35 0.01v-2.47c5.74 0 6.76-2.24 6.76-7.99v-35.15c0-4.8-1.71-6.68-6.76-6.68v-2.41z" fill="#000"/>
  <path d="m187 64.61 18.52-0.01 27.6 33.27 0.31-23.96c0-4.67-1.98-6.85-7.66-6.85v-2.46h17.36v2.46c-4.72 0-6.3 2.65-6.3 7.36v45.27h-3.28l-35.6-42.48-0.07 31.78c0 5.75 1.99 8.05 6.91 8.05v2.27h-18.03v-2.26c5.62 0 7.04-2.31 7.04-8.24l0.19-35.03c-1.54-3.72-3.8-6.03-6.99-6.72v-2.45z" fill="#000"/>
  <path d="m63.88 129.4 26.33-0.01v2.47c-5.94 0-6.83 2.65-6.83 6.94l-0.01 35.9c0 3.95 0.89 4.9 5.19 4.9h4.36c7.03-0.01 12.05-5.94 14.94-14.99l2.39 0.44-1.85 18.21-44.64 0.01v-2.2c5.75-0.38 5.93-2.55 5.93-7.32v-35.09c0-4.23-1.57-6.82-5.81-6.82v-2.44z" fill="#000"/>
  <path d="m136.4 127.9 5.81-0.32 18.52 44.88c2.45 6.26 4.46 8.01 8.64 8.07v2.72h-26.86v-2.46c4.59 0 5.09-2.27 3.67-6.13l-2.53-7.28h-17.73l-2.19 6c-1.86 5.32-0.7 7.21 5.17 7.4v2.47h-17.91v-2.47c3.72-0.51 5.09-2.19 7.48-8.32l17.93-44.56zm-1.79 15.8-7.42 19.6h14.83l-7.41-19.6z" fill="#000"/>
  <path d="m156.8 129.1h26.46v2.31c-4.3 0-6.29 2.11-4.53 6.94l9.62 28.05 7.95-22.33-2.52-6.9c-1.23-3.57-3.05-5.74-6.84-5.74v-2.34h25.43v2.33c-4.99 0.26-5.87 2.53-4.51 6.86l10.45 27.8 9.56-25.21c1.86-5.06 0.91-8.66-4.71-9.45v-2.33l17.42-0.01v2.34c-3.59 0.51-5.92 3.16-8.25 9.61l-16.55 42.81h-4.85l-12.09-33.78-12.58 33.79h-4.92l-16.02-44.76c-1.99-5.26-3.84-7.5-8.52-7.69v-2.3z" fill="#000"/>
  <path d="m55.8 128.7 2.72-0.06 1.23 18.78-2.88 0.07c-3.14-11.23-9.42-16.41-18.58-16.17-9.1 0.25-13.08 8.54-13.36 13.41 1.19-4.91 3.85-7.68 7.89-7.72 3.85-0.04 5.9 2.86 6.53 6.68 1.47-0.58 3.36-0.55 4.66 0 2.95 1.25 4.69 4.35 4.13 8.65-0.25 2-0.91 3.76-1.85 5.33 2.46 1.3 3.4 4.13 2.33 7.76-1.07 3.86-3.96 5.5-7.36 6.2-3.28 2.24-8.9 1.98-12.25-1.4 3.16 1.46 6.95 0.89 8.6-2.14-2.33 1.14-5.99 1.08-10.35-1.09l-2.45-0.77c2.46 8.41 8.67 12.91 16.81 12.68 6.66-0.19 12.87-3.16 17.39-9.32l2.26 2.52c-6.21 8.8-14.16 12.66-24.08 12.53-16.08-0.25-28.05-11.55-27.98-27.7 0.06-14.67 11.3-29.2 28.53-29.33 6.41-0.12 12.41 1.18 17.07 3.65l0.99-2.56zm-30.99 30.46c3.52-7.22 5.78-9.04 8.24-10.06 1.47-0.64 2.07-3.54 0.37-4.93-2.52-2.01-6.31-0.12-8.29 3.57-0.82 2.76-1.32 7.63-0.32 11.42zm1.43-15.67c1.79-1.67 4.61-2.18 5.97-1.48-0.44-1.82-2.36-2.02-4.25-1.57-0.76 0.45-1.58 1.75-1.72 3.05zm6.47-4.29c3.34-0.06 5.05 2.94 4.55 8l1.16-1.52c0-3.99-2.07-6.74-4.96-6.8-0.98 0-2.35 0.32-3.05 0.89 0.76-0.38 1.45-0.57 2.3-0.57zm0.44 21.05c5.02-1.01 8.81-4.46 11.08-8.05 1.23-2.08 0.06-4.19-2.14-3.99-3.01 0.32-5.05 4.31-5.93 6.9-0.63 1.82-1.51 3.57-3.01 5.14zm6.46-12.56c2.52-1.6 5.74-0.65 6.81 1.58 1.02-2.89-1.44-4.46-3.7-4.34-1.79 0.2-3.09 1.09-4.07 2.77l0.96-0.01zm1.23 13.26c3.22-0.82 5.88-0.19 6.26 2.52 1.13-3.21-0.16-5.45-2.15-5.64-1.04 1.46-2.41 2.31-4.11 3.12zm-4.17 9.09c2.07-0.25 5.08-1.87 6.51-2.89 2.13-1.51 1.44-3.26 0.07-3.51-3.16-0.51-5.2 2.71-6.24 4.59-0.57 0.82-1.26 1.46-2.36 1.78 0.57 0.13 1.26 0.13 2.02 0.03z" fill="#000"/>
</svg>